<mxfile host="app.diagrams.net" modified="2021-09-17T06:37:07.495Z" agent="5.0 (Windows)" etag="UhUegwwLzOaXYQvebAxW" version="15.2.7" type="github">
  <diagram id="7SA63HAvx1jWozJMohPs" name="Page-1">
    <mxGraphModel dx="1422" dy="780" grid="1" gridSize="10" guides="1" tooltips="1" connect="1" arrows="1" fold="1" page="1" pageScale="1" pageWidth="3300" pageHeight="4681" math="0" shadow="0">
      <root>
        <mxCell id="0" />
        <mxCell id="1" parent="0" />
        <mxCell id="kZ6u3BH4I5gmzjGOUQQB-4" value="" style="edgeStyle=orthogonalEdgeStyle;orthogonalLoop=1;jettySize=auto;html=1;sketch=0;" edge="1" parent="1" source="kZ6u3BH4I5gmzjGOUQQB-2">
          <mxGeometry relative="1" as="geometry">
            <mxPoint x="520" y="250" as="targetPoint" />
          </mxGeometry>
        </mxCell>
        <mxCell id="kZ6u3BH4I5gmzjGOUQQB-6" value="" style="edgeStyle=orthogonalEdgeStyle;rounded=0;sketch=0;orthogonalLoop=1;jettySize=auto;html=1;" edge="1" parent="1" target="kZ6u3BH4I5gmzjGOUQQB-5">
          <mxGeometry relative="1" as="geometry">
            <mxPoint x="520" y="310" as="sourcePoint" />
          </mxGeometry>
        </mxCell>
        <mxCell id="kZ6u3BH4I5gmzjGOUQQB-7" value="" style="rounded=1;whiteSpace=wrap;html=1;fillColor=#E6E6E6;strokeColor=none;" vertex="1" parent="1">
          <mxGeometry x="90" y="40" width="990" height="70" as="geometry" />
        </mxCell>
        <mxCell id="kZ6u3BH4I5gmzjGOUQQB-9" value="" style="rounded=1;whiteSpace=wrap;html=1;fillColor=#97D077;" vertex="1" parent="1">
          <mxGeometry x="510" y="50" width="230" height="50" as="geometry" />
        </mxCell>
        <mxCell id="kZ6u3BH4I5gmzjGOUQQB-10" value="&lt;font style=&quot;font-size: 18px&quot; face=&quot;Times New Roman&quot;&gt;BaB&lt;/font&gt;" style="rounded=1;whiteSpace=wrap;html=1;fillColor=#FFFFFF;strokeColor=none;" vertex="1" parent="1">
          <mxGeometry x="520" y="60" width="210" height="20" as="geometry" />
        </mxCell>
        <mxCell id="kZ6u3BH4I5gmzjGOUQQB-11" value="&lt;font style=&quot;font-size: 18px&quot; face=&quot;Times New Roman&quot;&gt;Author&lt;/font&gt;" style="rounded=1;whiteSpace=wrap;html=1;fillColor=#97D077;strokeColor=none;" vertex="1" parent="1">
          <mxGeometry x="570" y="80" width="120" height="20" as="geometry" />
        </mxCell>
        <mxCell id="kZ6u3BH4I5gmzjGOUQQB-1" value="&lt;font face=&quot;Times New Roman&quot;&gt;&lt;b&gt;&lt;font style=&quot;font-size: 24px&quot;&gt;&lt;font style=&quot;font-size: 18px&quot;&gt;2017&lt;/font&gt;&lt;/font&gt;&lt;/b&gt;&lt;/font&gt;" style="whiteSpace=wrap;html=1;rounded=1;fillColor=#E6E6E6;strokeColor=none;" vertex="1" parent="1">
          <mxGeometry x="40" y="40" width="70" height="70" as="geometry" />
        </mxCell>
      </root>
    </mxGraphModel>
  </diagram>
</mxfile>
